<?xml version="1.0" encoding="iso-8859-1"?>
<!-- Generator: Adobe Illustrator 18.0.0, SVG Export Plug-In . SVG Version: 6.00 Build 0)  -->
<!DOCTYPE svg PUBLIC "-//W3C//DTD SVG 1.1//EN" "http://www.w3.org/Graphics/SVG/1.1/DTD/svg11.dtd">
<svg version="1.1" id="Capa_1" xmlns="http://www.w3.org/2000/svg" xmlns:xlink="http://www.w3.org/1999/xlink" x="0px" y="0px"
	 viewBox="0 0 458.862 458.862" style="enable-background:new 0 0 458.862 458.862;" xml:space="preserve">
<g id="XMLID_28_">
	<path id="XMLID_31_" d="M213.486,115.122l14.016,8.213l20.326-12.501c3.26-2.005,6.703-3.455,10.22-4.392l-29.385-17.219
		c-7.152-4.191-16.347-1.791-20.539,5.362C203.934,101.737,206.334,110.931,213.486,115.122z"/>
	<circle id="XMLID_866_" cx="162.663" cy="65.4" r="41.401"/>
	<path id="XMLID_867_" d="M192.674,283.233c-2.354-6.607-7.653-11.738-14.332-13.879l-23.644-7.579l16.673-58.197l-40.84-34.172
		l65.659,30.34c5.701,2.633,12.342,2.243,17.695-1.05l63.834-39.261c8.825-5.427,11.578-16.98,6.151-25.804
		c-5.427-8.823-16.979-11.579-25.804-6.15l-55.268,33.992l-56.53-26.122l31.795,5.424c-3.538-4.823-8.637-8.557-14.832-10.332
		l-45.749-13.107c-7.497-2.148-15.55-1.068-22.217,2.979c-6.666,4.047-11.34,10.693-12.894,18.336L54.788,274.332
		c-1.428,7.026,0.375,14.322,4.911,19.873c1.031,1.261,2.183,2.396,3.424,3.406H50.061L29.895,138.359
		c-1.041-8.222-8.551-14.048-16.772-13.002c-8.222,1.041-14.043,8.55-13.002,16.772l21.337,168.494v109.244
		c0,8.288,6.718,15.006,15.006,15.006s15.006-6.719,15.006-15.006v-92.244h76.035v92.244c0,8.288,6.718,15.006,15.006,15.006
		s15.006-6.719,15.006-15.006V318.689l36.073,101.225c4.174,11.712,17.05,17.819,28.759,13.647
		c11.71-4.173,17.82-17.049,13.647-28.759L192.674,283.233z"/>
	<path id="XMLID_868_" d="M455.096,261.75H216.94c-2.08,0-3.766,1.686-3.766,3.766v34.486c0,2.08,1.686,3.766,3.766,3.766h104.072
		v101.094h-18.118c-8.288,0-15.006,6.719-15.006,15.006s6.718,15.006,15.006,15.006h66.248c8.288,0,15.006-6.719,15.006-15.006
		s-6.718-15.006-15.006-15.006h-18.118V303.767h104.072c2.08,0,3.766-1.686,3.766-3.766v-34.486
		C458.862,263.436,457.176,261.75,455.096,261.75z"/>
	<path id="XMLID_869_" d="M244.388,212.504c-0.124,0.537-0.194,1.08-0.194,1.629c0,9.121,14.804,16.988,36.171,20.624v5.234
		c0,3.508,2.843,6.351,6.351,6.351h40.595c3.507,0,6.351-2.843,6.351-6.351v-5.234c21.368-3.636,36.171-11.502,36.171-20.624
		c0-0.548-0.068-1.089-0.19-1.625c-0.237-1.049-2.008-1.837-4.12-1.837H248.507C246.402,210.671,244.629,211.459,244.388,212.504z"
		/>
</g>
<g>
</g>
<g>
</g>
<g>
</g>
<g>
</g>
<g>
</g>
<g>
</g>
<g>
</g>
<g>
</g>
<g>
</g>
<g>
</g>
<g>
</g>
<g>
</g>
<g>
</g>
<g>
</g>
<g>
</g>
</svg>
